<mxfile host="app.diagrams.net" modified="2021-07-13T10:44:09.956Z" agent="5.0 (Macintosh; Intel Mac OS X 10_15_7) AppleWebKit/537.36 (KHTML, like Gecko) Chrome/91.0.4472.114 Safari/537.36" etag="dW-reLe2ayfA4rGRxhF1" version="14.8.6" type="github">
  <diagram id="9bD1LAhMMJW2tnfjDezW" name="第 1 页">
    <mxGraphModel dx="1186" dy="764" grid="1" gridSize="10" guides="1" tooltips="1" connect="1" arrows="1" fold="1" page="1" pageScale="1" pageWidth="827" pageHeight="1169" math="0" shadow="0">
      <root>
        <mxCell id="0" />
        <mxCell id="1" parent="0" />
        <mxCell id="LLikyJrwjvV1myj5eqBL-3" style="edgeStyle=orthogonalEdgeStyle;rounded=0;orthogonalLoop=1;jettySize=auto;html=1;" edge="1" parent="1" source="LLikyJrwjvV1myj5eqBL-1" target="LLikyJrwjvV1myj5eqBL-2">
          <mxGeometry relative="1" as="geometry" />
        </mxCell>
        <mxCell id="LLikyJrwjvV1myj5eqBL-5" style="edgeStyle=orthogonalEdgeStyle;rounded=0;orthogonalLoop=1;jettySize=auto;html=1;exitX=1;exitY=0.5;exitDx=0;exitDy=0;entryX=0;entryY=0.5;entryDx=0;entryDy=0;" edge="1" parent="1" source="LLikyJrwjvV1myj5eqBL-1" target="LLikyJrwjvV1myj5eqBL-4">
          <mxGeometry relative="1" as="geometry" />
        </mxCell>
        <mxCell id="LLikyJrwjvV1myj5eqBL-1" value="" style="rounded=0;whiteSpace=wrap;html=1;" vertex="1" parent="1">
          <mxGeometry x="130" y="170" width="120" height="60" as="geometry" />
        </mxCell>
        <mxCell id="LLikyJrwjvV1myj5eqBL-2" value="" style="rounded=1;whiteSpace=wrap;html=1;" vertex="1" parent="1">
          <mxGeometry x="190" y="450" width="120" height="60" as="geometry" />
        </mxCell>
        <mxCell id="LLikyJrwjvV1myj5eqBL-4" value="" style="rhombus;whiteSpace=wrap;html=1;" vertex="1" parent="1">
          <mxGeometry x="490" y="230" width="80" height="80" as="geometry" />
        </mxCell>
      </root>
    </mxGraphModel>
  </diagram>
</mxfile>
